# xmcd CD database file
#
# Track frame offsets:
#	150
#	23857
#	40204
#	55856
#	87993
#	110182
#	132154
#	149911
#	173508
#	193858
#	214297
#	239604
#
# Disc length: 3584 seconds
#
# Revision: 37
# Processed by: cddbd v1.5.1PL2 Copyright (c) Steve Scherf et al.
# Submitted via: CDex 1.51
#
DISCID=b90dfe0c
DTITLE=GLAY - DRIVE 〜GLAY complete BEST〜 (Disc．1)
DYEAR=2000
DGENRE=J-Pop
TTITLE0=とまどい (Jet the Phantom)
TTITLE1=口唇
TTITLE2=SHUTTER SPEEDSのテーマ
TTITLE3=ずっと2人で・・・
TTITLE4=グロリアス
TTITLE5=a Boy 〜ずっと忘れない〜
TTITLE6=生きてく強さ
TTITLE7=HAPPY SWING
TTITLE8=彼女の “Modern・・・”
TTITLE9=SOUL LOVE
TTITLE10=HOWEVER
TTITLE11=I’m in Love
EXTD=YEAR: 2000
EXTT0=
EXTT1=
EXTT2=
EXTT3=
EXTT4=
EXTT5=
EXTT6=
EXTT7=
EXTT8=
EXTT9=
EXTT10=
EXTT11=
PLAYORDER=
